<svg width="28" height="28" viewBox="0 0 28 28" fill="none" xmlns="http://www.w3.org/2000/svg">
<rect width="28" height="28" rx="7" fill="white"/>
<path d="M14.9147 4.92519H13.2862L13.8644 5.9047H14.3395L14.9147 4.92519Z" fill="#222222"/>
<path d="M16.0571 2.97951H12.1377L12.712 3.95235H15.4859L16.0571 2.97951Z" fill="#222222"/>
<path d="M10.6456 4.43339L12.9506 8.27034L13.532 7.28004L11.1026 3.2167L10.6456 4.43339Z" fill="#222222"/>
<path d="M9.73783 6.85065L11.8123 10.2089L12.3785 9.2447L10.2048 5.6073L9.73783 6.85065Z" fill="#222222"/>
<path d="M8.83875 9.2447L10.5884 12.2935L11.1819 11.2825L9.26799 8.10174L8.83875 9.2447Z" fill="#222222"/>
<path fill-rule="evenodd" clip-rule="evenodd" d="M18.2986 25.2719L14.5626 19.0287L15.198 17.9581L19.0466 24.5154L18.2986 25.2719Z" fill="#222222"/>
<path fill-rule="evenodd" clip-rule="evenodd" d="M19.761 23.7929L15.7256 17.0692L16.3374 16.0385L20.4828 23.063L19.761 23.7929Z" fill="#222222"/>
<path fill-rule="evenodd" clip-rule="evenodd" d="M21.2135 22.324L16.9061 15.0803L17.4686 14.1325L21.925 21.6045L21.2135 22.324Z" fill="#222222"/>
<path fill-rule="evenodd" clip-rule="evenodd" d="M9.03902 24.5411L18.8575 8.10174L19.2743 9.2447L9.74561 25.2477L9.03902 24.5411Z" fill="#222222"/>
<path fill-rule="evenodd" clip-rule="evenodd" d="M7.50763 23.0097L17.9478 5.6073L18.4012 6.85065L8.26305 23.7651L7.50763 23.0097Z" fill="#222222"/>
<path fill-rule="evenodd" clip-rule="evenodd" d="M6.04485 21.5469L17.0683 3.19579L17.5197 4.43339L6.80712 22.3092L6.04485 21.5469Z" fill="#222222"/>
<path fill-rule="evenodd" clip-rule="evenodd" d="M16.6322 2H11.5595L11.1026 3.2167L13.532 7.28004L12.9506 8.27034L10.6456 4.43339L10.2048 5.6073L12.3785 9.2447L11.8123 10.2089L9.73783 6.85065L9.26799 8.10174L11.1819 11.2825L10.5884 12.2935L8.83875 9.2447L8.40951 10.3877L10.0651 13.1847L5.38281 20.8849L6.04485 21.5469L17.0683 3.19579L16.6322 2ZM17.5197 4.43339L6.80712 22.3092L7.50763 23.0097L17.9478 5.6073L17.5197 4.43339ZM8.26305 23.7651L9.03902 24.5411L18.8575 8.10174L18.4012 6.85065L8.26305 23.7651ZM10.4522 25.9543L9.74561 25.2477L19.2743 9.2447L19.6912 10.3877L18.0311 13.1847L22.6366 20.8849L21.925 21.6045L17.4686 14.1325L16.9061 15.0803L21.2135 22.324L20.4828 23.063L16.3374 16.0385L15.7256 17.0692L19.761 23.7929L19.0466 24.5154L15.198 17.9581L14.5626 19.0287L18.2986 25.2719L17.6237 25.9543L14.0428 19.9046L10.4522 25.9543ZM13.2862 4.92519H14.9147L14.3395 5.9047H13.8644L13.2862 4.92519ZM16.0571 2.97951H12.1377L12.712 3.95235H15.4859L16.0571 2.97951Z" fill="#F1A641"/>
</svg>
